# xmcd CD database file
#
# Track frame offsets:
#	150
#	9780
#	29918
#	50055
#
# Disc length: 933 seconds
#
# Revision: 2
# Processed by: cddbd v1.5.1PL2 Copyright (c) Steve Scherf et al.
# Submitted via: CDex 1.60beta1
#
DISCID=2d03a304
DTITLE=Various Artist - the Black Box 初回特典 マキシシングルCD
DYEAR=2006
DGENRE=Game
TTITLE0=佐藤裕美 - the Black Box (short)
TTITLE1=佐藤裕美 - the Black Box
TTITLE2=藤田淳平 - the Black Box (Karaoke)
TTITLE3=藤田淳平 - the Black Box (Instrumental)
EXTD=YEAR: 2006
EXTT0=
EXTT1=
EXTT2=
EXTT3=
PLAYORDER=
